<?xml version="1.0" encoding="UTF-8"?>
<svg version="1.1" xmlns="http://www.w3.org/2000/svg" width="2802" height="2802">
<path d="M0 0 C1.10518919 -0.00282738 2.21037838 -0.00565475 3.34905815 -0.00856781 C9.22627866 -0.02344107 15.10347549 -0.03273878 20.98071289 -0.03710938 C25.70637963 -0.04144168 30.43185838 -0.05514461 35.1574707 -0.078125 C78.22162223 -0.28297828 121.16022713 1.20912466 164.02734375 5.515625 C165.09198853 5.61950531 166.1566333 5.72338562 167.25354004 5.83041382 C262.86177988 15.17519273 357.09108755 34.27522996 695.33154297 166.68945312 C698.15830509 168.24069451 700.99830606 169.76457244 703.84375 171.28125 C719.19865621 179.47671985 734.18378424 188.22267867 749.08984375 197.203125 C750.08902832 197.8027002 751.08821289 198.40227539 752.11767578 199.02001953 C783.93568727 218.12575695 814.94289037 238.555087 845.08984375 260.203125 C846.56246662 261.25395302 848.03512428 262.30473231 849.5078125 263.35546875 C859.20035509 270.29247119 868.72504201 277.42498374 878.15722656 284.71142578 C879.95205519 286.09677228 881.75044156 287.47729567 883.55078125 288.85546875 C901.7971659 302.82881043 919.60486665 317.28822887 937.08984375 332.203125 C937.66863281 332.69554687 938.24742187 333.18796875 938.84375 333.6953125 C945.59958164 339.44433554 952.30121167 345.23726407 958.87109375 351.19921875 C960.88292768 353.01624482 962.91644809 354.80256892 964.96484375 356.578125 C969.88100703 360.86375832 974.67007956 365.2873463 979.46484375 369.70751953 C981.11797841 371.22901937 982.77540535 372.74572964 984.43359375 374.26171875 C990.01898314 379.37854066 995.52582621 384.52771719 1000.796875 389.97265625 C1002.653925 391.77908819 1004.53451799 393.44716124 1006.50390625 395.125 C1012.21474847 400.08561901 1017.50782742 405.47187244 1022.84448242 410.82739258 C1024.6484646 412.63673433 1026.4577304 414.44066819 1028.26757812 416.24414062 C1033.57021689 421.54404189 1038.7954627 426.84390052 1043.65991211 432.55493164 C1045.84559022 435.07422701 1048.20344122 437.37287312 1050.58984375 439.703125 C1054.23098222 443.29569856 1057.70579113 446.96223072 1061.0234375 450.85546875 C1063.92416878 454.15100656 1066.95215912 457.32262315 1069.96484375 460.515625 C1074.83348925 465.68975664 1079.44754766 470.97297684 1083.8828125 476.52734375 C1086.34964197 479.51810161 1088.9497341 482.36656106 1091.58984375 485.203125 C1095.84522975 489.78234624 1099.86307763 494.49599378 1103.78515625 499.3671875 C1106.2977907 502.45900548 1108.8764276 505.48740073 1111.46484375 508.515625 C1116.22006051 514.09970994 1120.77175054 519.82306872 1125.27734375 525.609375 C1127.6615509 528.66810574 1130.08566437 531.69254822 1132.52124023 534.71044922 C1139.25198545 543.05705336 1145.71282822 551.58426642 1152.08984375 560.203125 C1152.64430176 560.95110352 1153.19875977 561.69908203 1153.77001953 562.46972656 C1157.32368047 567.26611567 1160.86219477 572.07333718 1164.39013672 576.88867188 C1165.95116638 579.01429112 1167.52143736 581.13272328 1169.09375 583.25 C1178.91090748 596.5624652 1187.97370208 610.38899927 1197.09913635 624.17935181 C1199.76131145 628.20230374 1202.43338832 632.2184104 1205.11425781 636.22892761 C1209.06439817 642.13948698 1212.99020158 648.06133563 1216.77734375 654.078125 C1217.26807373 654.85728271 1217.75880371 655.63644043 1218.2644043 656.43920898 C1267.51543484 735.05216834 1309.41928888 818.39569933 1387.08984375 1047.203125 C1387.33005249 1048.11586182 1387.57026123 1049.02859863 1387.81774902 1049.96899414 C1408.51904956 1128.89425406 1421.60472314 1210.06037017 1427.86981201 1291.39599609 C1428.08600931 1294.15420579 1428.31525618 1296.91105701 1428.54736328 1299.66796875 C1434.14467747 1367.37766845 1434.13301945 1437.52928259 1428.34307861 1505.22485352 C1428.07621559 1508.36340456 1427.82224854 1511.50283452 1427.56982422 1514.64257812 C1419.20377269 1617.56461095 1399.99140112 1719.63357136 1369.08984375 1818.203125 C1368.81396423 1819.08601196 1368.53808472 1819.96889893 1368.25384521 1820.87854004 C1348.83769085 1882.9379644 1325.14022675 1943.53550005 1297.08984375 2002.203125 C1296.44254323 2003.56005747 1295.7952451 2004.91699109 1295.14794922 2006.27392578 C1282.83070622 2032.06285809 1269.96287064 2057.47814426 1255.75048828 2082.28466797 C1253.40729697 2086.40264929 1251.10967059 2090.54550412 1248.80883789 2094.68725586 C1242.14071662 2106.67744624 1235.25827644 2118.50582523 1228.08984375 2130.203125 C1227.58565918 2131.03344238 1227.08147461 2131.86375977 1226.56201172 2132.71923828 C1217.75161169 2147.20775614 1208.42678068 2161.34244459 1199.02734375 2175.453125 C1198.15070068 2176.7707785 1198.15070068 2176.7707785 1197.25634766 2178.11505127 C1184.34828577 2197.49841615 1171.01200268 2216.53459082 1157.08984375 2235.203125 C1156.28885254 2236.27868652 1156.28885254 2236.27868652 1155.47167969 2237.37597656 C1152.02743774 2241.99744547 1148.56671767 2246.60615934 1145.08984375 2251.203125 C1144.66783691 2251.76161133 1144.24583008 2252.32009766 1143.81103516 2252.89550781 C1137.24716154 2261.56242054 1130.42057272 2269.99810208 1123.54394531 2278.41699219 C1121.62739669 2280.77116776 1119.73160455 2283.14150288 1117.83984375 2285.515625 C1110.28647492 2294.97307223 1102.53497173 2304.23792714 1094.63378906 2313.40478516 C1093.11948289 2315.16860224 1091.61486992 2316.9401939 1090.11328125 2318.71484375 C1084.42746805 2325.42174049 1078.60365282 2331.96042924 1072.59179688 2338.37719727 C1069.89354153 2341.25731632 1067.22556328 2344.14715605 1064.65234375 2347.140625 C1056.91734168 2356.09085184 1048.7522396 2364.75756351 1040.25 2372.98046875 C1038.45198026 2374.83051076 1036.78719239 2376.71223006 1035.11328125 2378.671875 C1030.43261709 2384.05910161 1025.37309098 2389.06958915 1020.32006836 2394.10327148 C1018.65558098 2395.7623982 1016.99650928 2397.42680551 1015.33789062 2399.09179688 C1010.29971735 2404.1327944 1005.22762843 2409.07579234 999.80444336 2413.70678711 C997.09529312 2416.07107328 994.59863687 2418.63001478 992.08984375 2421.203125 C988.29719678 2425.04245615 984.45883892 2428.72994292 980.34765625 2432.23046875 C977.19570299 2434.98433794 974.14853304 2437.84647757 971.08984375 2440.703125 C966.16379297 2445.29415794 961.20707084 2449.82484767 956.08984375 2454.203125 C955.05589697 2455.09103799 954.02205242 2455.97907005 952.98828125 2456.8671875 C950.59833721 2458.91899246 948.20612892 2460.96812035 945.8125 2463.015625 C943.3582067 2465.115445 940.90779995 2467.21965137 938.4609375 2469.328125 C931.41945132 2475.39173393 924.30821575 2481.35013289 917.08984375 2487.203125 C915.87586308 2488.19868367 914.66235151 2489.19481454 913.44921875 2490.19140625 C905.23987988 2496.92077467 896.90845521 2503.45805137 888.453125 2509.875 C884.67578687 2512.74533329 880.93621673 2515.66146096 877.20263672 2518.58837891 C870.12954736 2524.13004157 862.99245596 2529.52567419 855.640625 2534.69140625 C853.19798512 2536.40864378 850.78314069 2538.15771091 848.3828125 2539.93359375 C834.94962338 2549.83759969 821.02789914 2559.00491399 807.11354065 2568.21247864 C803.09060605 2570.87462122 799.0745314 2573.54668759 795.06404114 2576.22753906 C789.15348177 2580.17767942 783.23163312 2584.10348283 777.21484375 2587.890625 C776.43568604 2588.38135498 775.65652832 2588.87208496 774.85375977 2589.37768555 C749.43170265 2605.30460805 723.46174507 2620.40517649 697.04199219 2634.61376953 C693.82787537 2636.34416157 690.61909755 2638.08424929 687.41015625 2639.82421875 C662.72415496 2653.17330207 637.6606933 2665.63107756 612.08984375 2677.203125 C611.44851501 2677.49338562 610.80718628 2677.78364624 610.14642334 2678.08270264 C573.39027752 2694.69224561 536.12219345 2709.76750536 498.08984375 2723.203125 C497.23972717 2723.50389954 496.3896106 2723.80467407 495.51373291 2724.11456299 C405.24646903 2756.00746926 311.71561899 2778.13411743 139.89697266 2798.98309326 C137.13876296 2799.19929056 134.38191174 2799.42853743 131.625 2799.66064453 C63.9153003 2805.25795872 -6.23631384 2805.2463007 -73.93188477 2799.45635986 C-77.07043581 2799.18949684 -80.20986577 2798.93552979 -83.34960938 2798.68310547 C-186.24840932 2790.31894244 -288.37751094 2771.16197573 -386.91015625 2740.203125 C-387.8439209 2739.91028625 -388.77768555 2739.61744751 -389.73974609 2739.31573486 C-470.59095584 2713.91242122 -548.77922672 2681.12141194 -653.15087891 2625.78417969 C-656.00318551 2624.14981961 -658.86668567 2622.53689073 -661.734375 2620.9296875 C-674.26408515 2613.90667189 -686.65546337 2606.69563153 -698.91015625 2599.203125 C-699.74337402 2598.69749023 -700.5765918 2598.19185547 -701.43505859 2597.67089844 C-715.92046159 2588.8618 -730.05225952 2579.53820765 -744.16015625 2570.140625 C-745.03859192 2569.55619629 -745.91702759 2568.97176758 -746.82208252 2568.36962891 C-771.0739508 2552.21946001 -794.92650946 2535.50246387 -817.98632812 2517.68603516 C-819.75284976 2516.32437876 -821.52509399 2514.97076352 -823.30078125 2513.62109375 C-829.93445547 2508.56414259 -836.43746782 2503.37195229 -842.89428711 2498.09204102 C-847.23118453 2494.55000737 -851.61338467 2491.07583359 -856.03515625 2487.640625 C-862.5810066 2482.5379907 -868.8762802 2477.17254868 -875.14257812 2471.73242188 C-876.93875972 2470.17837747 -878.74321427 2468.63453169 -880.55078125 2467.09375 C-886.67125501 2461.8761079 -892.73486432 2456.61239965 -898.69140625 2451.20703125 C-900.70324018 2449.39000518 -902.73676059 2447.60368108 -904.78515625 2445.828125 C-909.70131953 2441.54249168 -914.49039206 2437.1189037 -919.28515625 2432.69873047 C-920.93829091 2431.17723063 -922.59571785 2429.66052036 -924.25390625 2428.14453125 C-929.83929564 2423.02770934 -935.34613871 2417.87853281 -940.6171875 2412.43359375 C-942.4742375 2410.62716181 -944.35483049 2408.95908876 -946.32421875 2407.28125 C-952.03506097 2402.32063099 -957.32813992 2396.93437756 -962.66479492 2391.57885742 C-964.4687771 2389.76951567 -966.2780429 2387.96558181 -968.08789062 2386.16210938 C-973.39052939 2380.86220811 -978.6157752 2375.56234948 -983.48022461 2369.85131836 C-985.66590272 2367.33202299 -988.02375372 2365.03337688 -990.41015625 2362.703125 C-994.05129472 2359.11055144 -997.52610363 2355.44401928 -1000.84375 2351.55078125 C-1003.74448128 2348.25524344 -1006.77247162 2345.08362685 -1009.78515625 2341.890625 C-1014.65380175 2336.71649336 -1019.26786016 2331.43327316 -1023.703125 2325.87890625 C-1026.16995447 2322.88814839 -1028.7700466 2320.03968894 -1031.41015625 2317.203125 C-1035.66107745 2312.62870833 -1039.67486373 2307.91999532 -1043.59375 2303.0546875 C-1046.17513289 2299.87693116 -1048.81800774 2296.75710962 -1051.47265625 2293.640625 C-1056.0579528 2288.24282398 -1060.52759695 2282.76749804 -1064.91015625 2277.203125 C-1065.52842285 2276.42050293 -1065.52842285 2276.42050293 -1066.15917969 2275.62207031 C-1082.56509831 2254.85402285 -1098.58329394 2233.78225518 -1113.91015625 2212.203125 C-1114.49812988 2211.37603027 -1115.08610352 2210.54893555 -1115.69189453 2209.69677734 C-1132.19424008 2186.40678979 -1147.92781827 2162.49930644 -1162.91015625 2138.203125 C-1163.86801025 2136.65044922 -1163.86801025 2136.65044922 -1164.84521484 2135.06640625 C-1173.94446617 2120.29076374 -1182.81167547 2105.40611789 -1191.22949219 2090.22900391 C-1193.02277512 2087.00036522 -1194.82965566 2083.77953782 -1196.63671875 2080.55859375 C-1234.86738057 2012.22029697 -1266.6601032 1940.64190052 -1371.11328125 1431.29296875 C-1371.11610863 1430.18777956 -1371.118936 1429.08259037 -1371.12184906 1427.9439106 C-1371.13672232 1422.06669009 -1371.14602003 1416.18949326 -1371.15039062 1410.31225586 C-1371.15472293 1405.58658912 -1371.16842586 1400.86111037 -1371.19140625 1396.13549805 C-1371.39625953 1353.07134652 -1369.90415659 1310.13274162 -1365.59765625 1267.265625 C-1365.44183578 1265.66865784 -1365.44183578 1265.66865784 -1365.28286743 1264.03942871 C-1355.70923436 1166.08973771 -1336.03672425 1069.40167743 -1244.91015625 817.203125 C-1244.60484985 816.54244019 -1244.29954346 815.88175537 -1243.98498535 815.2010498 C-1231.57518348 788.36755395 -1218.74150676 761.79798866 -1204.40771484 735.92919922 C-1202.86238764 733.11616962 -1201.34558973 730.28935388 -1199.8359375 727.45703125 C-1191.63928823 712.09879146 -1182.89599166 697.11169691 -1173.91015625 682.203125 C-1173.29994629 681.18798828 -1172.68973633 680.17285156 -1172.06103516 679.12695312 C-1153.33811179 648.01243094 -1133.47927089 617.56286005 -1112.26269531 588.08398438 C-1110.79255468 586.03958664 -1109.33184696 583.98861418 -1107.87109375 581.9375 C-1099.46305593 570.1711497 -1090.73677053 558.65774206 -1081.91015625 547.203125 C-1081.27335937 546.37651367 -1080.6365625 545.54990234 -1079.98046875 544.69824219 C-1073.08323141 535.75830645 -1066.11079833 526.90106506 -1058.91015625 518.203125 C-1057.45130635 516.41187892 -1055.99298601 514.62020144 -1054.53515625 512.828125 C-1049.40163225 506.55579498 -1044.16614005 500.37281169 -1038.91015625 494.203125 C-1038.4104834 493.61563477 -1037.91081055 493.02814453 -1037.39599609 492.42285156 C-1031.65429705 485.67585345 -1025.86830249 478.98325575 -1019.9140625 472.421875 C-1018.09703643 470.41004107 -1016.31071233 468.37652066 -1014.53515625 466.328125 C-1010.23559143 461.39452297 -1005.7912021 456.59415963 -1001.35839844 451.78076172 C-999.92499869 450.21929355 -998.49855969 448.6517634 -997.07421875 447.08203125 C-992.23811503 441.76029368 -987.34365611 436.53635715 -982.17578125 431.53125 C-980.37454652 429.68032604 -978.71640774 427.81250915 -977.046875 425.84765625 C-971.80594349 419.81336629 -966.0891388 414.23327727 -960.43139648 408.59399414 C-958.47720001 406.6451563 -956.52840478 404.69103228 -954.58007812 402.73632812 C-949.03308521 397.18667864 -943.5071276 391.68147602 -937.52319336 386.59790039 C-935.0130555 384.42741188 -932.72855446 382.07738823 -930.41015625 379.703125 C-926.79943052 376.04351369 -923.11334451 372.54873313 -919.203125 369.2109375 C-916.04178202 366.4427428 -912.98103634 363.57091842 -909.91015625 360.703125 C-904.98408284 356.11211479 -900.02738468 351.58140348 -894.91015625 347.203125 C-893.87620947 346.31521201 -892.84236492 345.42717995 -891.80859375 344.5390625 C-889.41520589 342.48410618 -887.01888947 340.43262304 -884.62109375 338.3828125 C-882.20194245 336.31341802 -879.79076892 334.23535193 -877.38671875 332.1484375 C-871.07827451 326.68353856 -864.68279076 321.38788774 -858.08544922 316.27490234 C-854.14137879 313.20704739 -850.31997598 310.02707421 -846.53515625 306.765625 C-841.25761504 302.23649998 -835.78755161 298.02988634 -830.19921875 293.89257812 C-825.07845105 290.09815727 -820.04771536 286.2015448 -815.03515625 282.265625 C-793.80897504 265.66481647 -771.45041706 250.49269762 -749.12841797 235.41601562 C-746.40777576 233.57651549 -743.69219551 231.72969688 -740.9765625 229.8828125 C-730.59872282 222.85396281 -720.0867585 216.15984314 -709.28613281 209.79882812 C-705.19268634 207.38743288 -701.16818536 204.8783783 -697.16015625 202.328125 C-648.74067154 171.84947159 -597.19138779 145.37899257 -544.95709229 122.11590576 C-542.96151869 121.22602882 -540.9675891 120.33257069 -538.97412109 119.43798828 C-452.39257138 80.62316996 -361.64904201 51.29337386 0 0 Z " fill="#FEFEFE" transform="translate(1370.91015625,-0.203125)"/>
<path d="M0 0 C120.12 0 240.24 0 364 0 C374.88735644 20.68597724 385.73834634 41.37069067 396.14544678 62.3008728 C399.64120443 69.3289797 403.18128246 76.32388998 406.875 83.25 C411.41028965 91.75414649 415.70681285 100.37206556 420 109 C424.6329322 118.31068245 429.30532338 127.58672735 434.203125 136.76171875 C438.45000115 144.76164825 442.4565641 152.88160749 446.49005127 160.99035645 C450.22514437 168.49572042 453.98923708 175.97876774 457.9375 183.375 C462.45347681 191.83667669 466.72753803 200.41376654 471 209 C475.25173149 217.5445437 479.50350427 226.08069937 484 234.5 C488.87056622 243.61971538 493.45609786 252.87796299 498.06152344 262.13330078 C501.96086356 269.96624905 505.87763862 277.78123368 510 285.5 C514.87021246 294.61905299 519.45544202 303.87661247 524.06051636 313.13128662 C528.3413853 321.73068793 532.67913571 330.28698538 537.203125 338.76171875 C541.45000115 346.76164825 545.4565641 354.88160749 549.49005127 362.99035645 C553.22514437 370.49572042 556.98923708 377.97876774 560.9375 385.375 C565.45347681 393.83667669 569.72753803 402.41376654 574 411 C578.25173149 419.5445437 582.50350427 428.08069937 587 436.5 C591.87056622 445.61971538 596.45609786 454.87796299 601.06152344 464.13330078 C604.96086356 471.96624905 608.87763862 479.78123368 613 487.5 C617.87021246 496.61905299 622.45544202 505.87661247 627.06051636 515.13128662 C631.3413853 523.73068793 635.67913571 532.28698538 640.203125 540.76171875 C644.45000115 548.76164825 648.4565641 556.88160749 652.49005127 564.99035645 C656.22514437 572.49572042 659.98923708 579.97876774 663.9375 587.375 C668.45347681 595.83667669 672.72753803 604.41376654 677 613 C681.25173149 621.5445437 685.50350427 630.08069937 690 638.5 C694.87056622 647.61971538 699.45609786 656.87796299 704.06152344 666.13330078 C707.96086356 673.96624905 711.87763862 681.78123368 716 689.5 C720.87021246 698.61905299 725.45544202 707.87661247 730.06051636 717.13128662 C734.3413853 725.73068793 738.67913571 734.28698538 743.203125 742.76171875 C747.45000115 750.76164825 751.4565641 758.88160749 755.49005127 766.99035645 C759.22514437 774.49572042 762.98923708 781.97876774 766.9375 789.375 C771.45347681 797.83667669 775.72753803 806.41376654 780 815 C784.25173149 823.5445437 788.50350427 832.08069937 793 840.5 C797.87056622 849.61971538 802.45609786 858.87796299 807.06152344 868.13330078 C810.96086356 875.96624905 814.87763862 883.78123368 819 891.5 C823.87021246 900.61905299 828.45544202 909.87661247 833.06051636 919.13128662 C837.3413853 927.73068793 841.67913571 936.28698538 846.203125 944.76171875 C850.45000115 952.76164825 854.4565641 960.88160749 858.49005127 968.99035645 C862.22514437 976.49572042 865.98923708 983.97876774 869.9375 991.375 C874.45347681 999.83667669 878.72753803 1008.41376654 883 1017 C887.25173149 1025.5445437 891.50350427 1034.08069937 896 1042.5 C900.87056622 1051.61971538 905.45609786 1060.87796299 910.06152344 1070.13330078 C913.96086356 1077.96624905 917.87763862 1085.78123368 922 1093.5 C926.87021246 1102.61905299 931.45544202 1111.87661247 936.06051636 1121.13128662 C940.3413853 1129.73068793 944.67913571 1138.28698538 949.203125 1146.76171875 C953.45000115 1154.76164825 957.4565641 1162.88160749 961.49005127 1170.99035645 C965.22514437 1178.49572042 968.98923708 1185.97876774 972.9375 1193.375 C977.45347681 1201.83667669 981.72753803 1210.41376654 986 1219 C990.25173149 1227.5445437 994.50350427 1236.08069937 999 1244.5 C1003.87021246 1253.61905299 1008.45544202 1262.87661247 1013.06051636 1272.13128662 C1017.3413853 1280.73068793 1021.67913571 1289.28698538 1026.203125 1297.76171875 C1030.45000115 1305.76164825 1034.4565641 1313.88160749 1038.49005127 1321.99035645 C1042.22514437 1329.49572042 1045.98923708 1336.97876774 1049.9375 1344.375 C1054.45347681 1352.83667669 1058.72753803 1361.41376654 1063 1370 C1067.25173149 1378.5445437 1071.50350427 1387.08069937 1076 1395.5 C1080.87056622 1404.61971538 1085.45609786 1413.87796299 1090.06152344 1423.13330078 C1093.96086356 1430.96624905 1097.87763862 1438.78123368 1102 1446.5 C1106.87021246 1455.61905299 1111.45544202 1464.87661247 1116.06051636 1474.13128662 C1120.3413853 1482.73068793 1124.67913571 1491.28698538 1129.203125 1499.76171875 C1133.45000115 1507.76164825 1137.4565641 1515.88160749 1141.49005127 1523.99035645 C1145.22514437 1531.49572042 1148.98923708 1538.97876774 1152.9375 1546.375 C1157.45347681 1554.83667669 1161.72753803 1563.41376654 1166 1572 C1170.25173149 1580.5445437 1174.50350427 1589.08069937 1179 1597.5 C1183.86950493 1606.61772821 1188.45413044 1615.87391139 1193.0585022 1625.1272583 C1197.02102385 1633.08724305 1201.00530211 1641.02735746 1205.1875 1648.875 C1209.26353213 1656.52445578 1213.18170909 1664.25009652 1217.0625 1672 C1217.63572998 1673.14194824 1218.20895996 1674.28389648 1218.79956055 1675.46044922 C1219.33105713 1676.52537598 1219.86255371 1677.59030273 1220.41015625 1678.6875 C1220.88590088 1679.64011719 1221.36164551 1680.59273437 1221.85180664 1681.57421875 C1223 1684 1223 1684 1224 1687 C1067.91 1687 911.82 1687 751 1687 C721 1627 721 1627 710 1604 C706.18698148 1596.27962721 706.18698148 1596.27962721 702.34397888 1588.574646 C701.68953198 1587.26949665 701.68953198 1587.26949665 701.02186394 1585.93798065 C700.57056681 1585.03805641 700.11926968 1584.13813217 699.65429688 1583.2109375 C698.67528002 1581.25483087 697.69644994 1579.29863076 696.7177887 1577.34234619 C694.63581779 1573.18152713 692.55261403 1569.02132872 690.46839905 1564.8616333 C687.16054332 1558.25963856 683.85587877 1551.65604953 680.55163574 1545.05224609 C673.5368181 1531.03363176 666.5185982 1517.01672184 659.5 1503 C651.91825171 1487.85862079 644.33712582 1472.71693177 636.75992823 1457.57327461 C633.48738295 1451.03311093 630.21290149 1444.49392177 626.93683624 1437.95552063 C624.88643211 1433.86226725 622.83775467 1429.76815136 620.7895031 1425.6738205 C619.85310099 1423.80285947 618.91601984 1421.93223808 617.97813606 1420.06201935 C612.57469927 1409.28606179 607.29009358 1398.46183424 602.10871601 1387.57733536 C597.41122234 1377.72758915 592.54596417 1367.96533139 587.65429688 1358.2109375 C586.67528002 1356.25483087 585.69644994 1354.29863076 584.7177887 1352.34234619 C582.63581779 1348.18152713 580.55261403 1344.02132872 578.46839905 1339.8616333 C575.16054332 1333.25963856 571.85587877 1326.65604953 568.55163574 1320.05224609 C561.5368181 1306.03363176 554.5185982 1292.01672184 547.5 1278 C539.91825171 1262.85862079 532.33712582 1247.71693177 524.75992823 1232.57327461 C521.48738295 1226.03311093 518.21290149 1219.49392177 514.93683624 1212.95552063 C512.88643211 1208.86226725 510.83775467 1204.76815136 508.7895031 1200.6738205 C507.85310099 1198.80285947 506.91601984 1196.93223808 505.97813606 1195.06201935 C500.57263945 1184.28195394 495.28595771 1173.45360354 490.10254049 1162.56498432 C485.43654712 1152.78110042 480.60515783 1143.08360521 475.74609375 1133.39453125 C474.77692895 1131.45812883 473.80795098 1129.52163288 472.83914185 1127.58505249 C470.77845205 1123.46679516 468.71652955 1119.34915846 466.65359497 1115.23202515 C463.37934311 1108.69724082 460.10828436 1102.16086127 456.83764648 1095.62426758 C449.89415901 1081.74831251 442.94726891 1067.8740621 436 1054 C428.49524016 1039.01259911 420.9911034 1024.02488808 413.49089527 1009.0352087 C410.77731318 1003.6121714 408.06288849 998.18955947 405.34640503 992.76797485 C385.80850829 953.77333554 385.80850829 953.77333554 378.91933727 939.20036983 C372.63065348 925.93368043 365.98271622 912.83935068 359.40729547 899.71319699 C357.41435407 895.73368623 355.42377073 891.75299619 353.4329071 887.77244568 C349.67261722 880.25494643 345.91029611 872.73846578 342.14719599 865.22237295 C337.88819352 856.71556257 333.63147004 848.20761254 329.37494338 839.69956315 C322.08701109 825.13235054 314.7975434 810.56590724 307.50584412 796.00057983 C303.89909988 788.79576917 300.29425137 781.59001444 296.69181615 774.38304812 C294.57388652 770.14628223 292.45228416 765.91138391 290.32646179 761.67857361 C288.70117761 758.44210235 287.07858003 755.20428543 285.45581055 751.96655273 C284.61637147 750.29268374 283.77621273 748.61917545 282.93530273 746.94604492 C278.76372548 738.64445135 274.61393114 730.33678194 270.64862537 721.9343214 C262.6794042 705.07835309 254.26971285 688.44012018 245.91012001 671.77564049 C243.06278676 666.09953266 240.21911787 660.4215938 237.37602234 654.74336243 C229.30134907 638.61798146 221.22171862 622.49508687 213.13891602 606.3737793 C208.65283673 597.42612673 204.16960884 588.4770513 199.68946046 579.52642757 C196.86190343 573.87785646 194.03075226 568.23110616 191.19692671 562.5856775 C189.44518877 559.09388689 187.69676357 555.60044574 185.94929695 552.10651588 C185.13635404 550.48278564 184.32202572 548.8597482 183.50624466 547.23744202 C182.39744807 545.03195166 181.29354093 542.82408312 180.19087219 540.61552429 C179.86375396 539.96779562 179.53663572 539.32006695 179.19960481 538.65271014 C177 534.2282176 177 534.2282176 177 532 C174.58514898 532.15118635 174.58514898 532.15118635 172 533 C170.37120692 534.94911684 170.37120692 534.94911684 169.22021484 537.52197266 C168.73555756 538.48873932 168.25090027 539.45550598 167.7515564 540.4515686 C166.98895004 542.04175308 166.98895004 542.04175308 166.2109375 543.6640625 C165.66700348 544.7622934 165.12306946 545.86052429 164.56265259 546.99203491 C162.8164287 550.52827797 161.09564812 554.0762536 159.375 557.625 C158.23990333 559.93178847 157.10320083 562.23778749 155.96484375 564.54296875 C150.72243219 575.18609117 145.57417444 585.87284288 140.4765625 596.5859375 C133.96603742 610.26281278 127.14130079 623.78068524 120.33398438 637.31152344 C114.63029876 648.6552225 108.95770899 660.0064907 103.51171875 671.4765625 C97.4683125 684.20470651 91.14423313 696.78842626 84.8125 709.375 C75.59330128 727.66649914 75.59330128 727.66649914 66.75036621 746.14122009 C63.65545436 752.78242758 60.37846857 759.32683254 57.07623291 765.86688232 C53.85619681 772.24906583 50.65887192 778.64273273 47.45581055 785.03344727 C46.61637147 786.70731626 45.77621273 788.38082455 44.93530273 790.05395508 C40.08401402 799.70819967 35.31329461 809.39343481 30.67578125 819.15234375 C24.10234524 832.97591127 17.21297665 846.63821581 10.33398438 860.31152344 C4.63029876 871.6552225 -1.04229101 883.0064907 -6.48828125 894.4765625 C-12.5316875 907.20470651 -18.85576687 919.78842626 -25.1875 932.375 C-34.40679159 950.66679536 -34.40679159 950.66679536 -43.24990845 969.14176941 C-46.34274168 975.77841252 -49.61737985 982.31834028 -52.91729736 988.85394287 C-56.17625069 995.31361129 -59.41219873 1001.78491204 -62.65405273 1008.25317383 C-63.50717231 1009.95438222 -64.36100935 1011.65523103 -65.21557617 1013.35571289 C-66.48817636 1015.88848219 -67.75797108 1018.42264312 -69.02734375 1020.95703125 C-69.39327133 1021.68372513 -69.75919891 1022.41041901 -70.13621521 1023.15913391 C-74.57608527 1032.03797716 -78.74715435 1041.02177029 -83 1050 C30.85 1050 144.7 1050 262 1050 C271.64463632 1069.28927264 281.20116936 1088.57774304 290.39453125 1108.078125 C291.15866542 1109.69800572 291.92298419 1111.31779937 292.6875 1112.9375 C293.05407715 1113.71440186 293.4206543 1114.49130371 293.79833984 1115.29174805 C296.4465749 1120.88345657 299.19244603 1126.42042249 301.98120117 1131.94311523 C304.92622515 1137.797488 307.73382575 1143.71337738 310.50390625 1149.65234375 C312.83306922 1154.62063434 315.25729322 1159.53752496 317.71875 1164.44140625 C322.21785818 1173.40525554 326.61410164 1182.41783883 331 1191.4375 C331.83573041 1193.15464397 332.67150599 1194.87176596 333.50732422 1196.58886719 C339.70369566 1209.32176629 345.88476667 1222.06207232 352.05914307 1234.8056488 C356.53334898 1244.04005589 361.01564594 1253.27051736 365.5 1262.5 C371.00513739 1273.8308469 376.50544459 1285.16401795 382 1296.5 C387.11988969 1307.06275903 392.24349868 1317.62370084 397.37231445 1328.18212891 C398.43384284 1330.3674711 399.49524762 1332.5528733 400.55664062 1334.73828125 C403.83462938 1341.48714257 407.11401541 1348.23531808 410.39709473 1354.98170471 C424.26922049 1383.48759887 424.26922049 1383.48759887 429.5625 1394.5625 C429.92666016 1395.31789063 430.29082031 1396.07328125 430.66601562 1396.8515625 C433 1401.76571216 433 1401.76571216 433 1404 C204.64 1404 -23.72 1404 -259 1404 C-259.99 1406.97 -260.98 1409.94 -262 1413 C-263.10649565 1415.23908789 -264.27430638 1417.44887446 -265.5 1419.625 C-268.87205555 1425.75465462 -271.95271498 1431.9859568 -274.9375 1438.3125 C-280.29770123 1449.65005618 -285.89675868 1460.86076906 -291.54663086 1472.0559082 C-295.53354367 1479.97231445 -299.41384205 1487.93192744 -303.21875 1495.9375 C-309.82878154 1509.83206793 -316.75114152 1523.56689384 -323.66601562 1537.31152344 C-329.37362327 1548.66302278 -335.04989005 1560.02221928 -340.5 1571.5 C-347.01004718 1585.20997917 -353.84536431 1598.75417958 -360.66601562 1612.31152344 C-366.96254888 1624.83429963 -373.18471002 1637.38284285 -379.20419312 1650.04141235 C-382.92467959 1657.86375128 -386.74078367 1665.63287129 -390.625 1673.375 C-391.24101313 1674.61061342 -391.8568981 1675.84629074 -392.47265625 1677.08203125 C-393.05144531 1678.23832031 -393.63023437 1679.39460938 -394.2265625 1680.5859375 C-394.73783691 1681.6073584 -395.24911133 1682.6287793 -395.77587891 1683.68115234 C-397 1686 -397 1686 -398 1687 C-400.45529666 1687.09879754 -402.88246167 1687.13178276 -405.33827305 1687.12304783 C-406.51004678 1687.1247786 -406.51004678 1687.1247786 -407.70549271 1687.12654433 C-410.35686958 1687.12921827 -413.00818728 1687.12468248 -415.65956116 1687.12025452 C-417.56608213 1687.12069006 -419.47260304 1687.12156465 -421.37912363 1687.12284368 C-426.64439895 1687.12509196 -431.90965413 1687.12106283 -437.17492688 1687.11606562 C-442.84299225 1687.11176605 -448.51105639 1687.11320719 -454.17912292 1687.1139679 C-464.00816685 1687.11449345 -473.83720416 1687.11134342 -483.66624641 1687.10573006 C-497.87757031 1687.09761924 -512.088891 1687.09500027 -526.30021697 1687.09374207 C-549.35452488 1687.09155089 -572.40882883 1687.08489758 -595.46313477 1687.07543945 C-617.86450177 1687.06625979 -640.26586782 1687.05917384 -662.66723633 1687.05493164 C-663.35735863 1687.05480011 -664.04748094 1687.05466859 -664.75851604 1687.05453308 C-671.68880718 1687.05321459 -678.61909832 1687.05193877 -685.54938948 1687.05069422 C-743.69959535 1687.04024748 -801.84979761 1687.02259604 -860 1687 C-858.74451607 1683.82969888 -857.43585061 1680.74570982 -855.91210938 1677.69482422 C-855.50408081 1676.87561493 -855.09605225 1676.05640564 -854.67565918 1675.21237183 C-854.23612915 1674.335336 -853.79659912 1673.45830017 -853.34375 1672.5546875 C-852.88198364 1671.63019806 -852.42021729 1670.70570862 -851.94445801 1669.75320435 C-850.96363057 1667.79086931 -849.98179375 1665.82903851 -848.99902344 1663.86767578 C-847.53024729 1660.93538621 -846.06565585 1658.00103616 -844.6015625 1655.06640625 C-839.6728349 1645.20582129 -834.66489012 1635.39605585 -829.50341797 1625.65524292 C-826.0345045 1619.09890215 -822.69766642 1612.48322477 -819.40847778 1605.83526611 C-815.05799353 1597.04661275 -810.68095929 1588.27670284 -806.0625 1579.625 C-801.54652319 1571.16332331 -797.27246197 1562.58623346 -793 1554 C-788.39035039 1544.73616182 -783.74211687 1535.50679124 -778.8671875 1526.37890625 C-774.76898547 1518.65745939 -770.89402506 1510.8256649 -767 1503 C-762.39034581 1493.73616415 -757.74211692 1484.50679134 -752.8671875 1475.37890625 C-748.76898547 1467.65745939 -744.89402506 1459.8256649 -741 1452 C-736.39034581 1442.73616415 -731.74211692 1433.50679134 -726.8671875 1424.37890625 C-722.39713503 1415.95685376 -718.18680676 1407.40442607 -713.93948364 1398.86871338 C-709.6586147 1390.26931207 -705.32086429 1381.71301462 -700.796875 1373.23828125 C-696.8973456 1365.89265611 -693.20359685 1358.44555165 -689.5 1351 C-685.43631186 1342.83053632 -681.35977438 1334.67503111 -677.0625 1326.625 C-672.54652319 1318.16332331 -668.27246197 1309.58623346 -664 1301 C-659.39035039 1291.73616182 -654.74211687 1282.50679124 -649.8671875 1273.37890625 C-645.76898547 1265.65745939 -641.89402506 1257.8256649 -638 1250 C-633.39034581 1240.73616415 -628.74211692 1231.50679134 -623.8671875 1222.37890625 C-619.39713503 1213.95685376 -615.18680676 1205.40442607 -610.93948364 1196.86871338 C-606.6586147 1188.26931207 -602.32086429 1179.71301462 -597.796875 1171.23828125 C-593.8973456 1163.89265611 -590.20359685 1156.44555165 -586.5 1149 C-582.43631186 1140.83053632 -578.35977438 1132.67503111 -574.0625 1124.625 C-569.54652319 1116.16332331 -565.27246197 1107.58623346 -561 1099 C-556.39035039 1089.73616182 -551.74211687 1080.50679124 -546.8671875 1071.37890625 C-542.76898547 1063.65745939 -538.89402506 1055.8256649 -535 1048 C-530.39034581 1038.73616415 -525.74211692 1029.50679134 -520.8671875 1020.37890625 C-516.76898547 1012.65745939 -512.89402506 1004.8256649 -509 997 C-504.39034581 987.73616415 -499.74211692 978.50679134 -494.8671875 969.37890625 C-490.39713503 960.95685376 -486.18680676 952.40442607 -481.93948364 943.86871338 C-477.6586147 935.26931207 -473.32086429 926.71301462 -468.796875 918.23828125 C-464.8973456 910.89265611 -461.20359685 903.44555165 -457.5 896 C-453.43631186 887.83053632 -449.35977438 879.67503111 -445.0625 871.625 C-440.54652319 863.16332331 -436.27246197 854.58623346 -432 846 C-427.39035039 836.73616182 -422.74211687 827.50679124 -417.8671875 818.37890625 C-413.76898547 810.65745939 -409.89402506 802.8256649 -406 795 C-401.39034581 785.73616415 -396.74211692 776.50679134 -391.8671875 767.37890625 C-387.76898547 759.65745939 -383.89402506 751.8256649 -380 744 C-375.39034581 734.73616415 -370.74211692 725.50679134 -365.8671875 716.37890625 C-361.39713503 707.95685376 -357.18680676 699.40442607 -352.93948364 690.86871338 C-348.6586147 682.26931207 -344.32086429 673.71301462 -339.796875 665.23828125 C-335.8973456 657.89265611 -332.20359685 650.44555165 -328.5 643 C-324.43631186 634.83053632 -320.35977438 626.67503111 -316.0625 618.625 C-311.54652319 610.16332331 -307.27246197 601.58623346 -303 593 C-298.39035039 583.73616182 -293.74211687 574.50679124 -288.8671875 565.37890625 C-284.76898547 557.65745939 -280.89402506 549.8256649 -277 542 C-272.39034581 532.73616415 -267.74211692 523.50679134 -262.8671875 514.37890625 C-258.39713503 505.95685376 -254.18680676 497.40442607 -249.93948364 488.86871338 C-245.6586147 480.26931207 -241.32086429 471.71301462 -236.796875 463.23828125 C-232.8973456 455.89265611 -229.20359685 448.44555165 -225.5 441 C-221.43631186 432.83053632 -217.35977438 424.67503111 -213.0625 416.625 C-208.54652319 408.16332331 -204.27246197 399.58623346 -200 391 C-195.39035039 381.73616182 -190.74211687 372.50679124 -185.8671875 363.37890625 C-181.76898547 355.65745939 -177.89402506 347.8256649 -174 340 C-169.39034581 330.73616415 -164.74211692 321.50679134 -159.8671875 312.37890625 C-155.76898547 304.65745939 -151.89402506 296.8256649 -148 289 C-143.39034581 279.73616415 -138.74211692 270.50679134 -133.8671875 261.37890625 C-129.39713503 252.95685376 -125.18680676 244.40442607 -120.93948364 235.86871338 C-116.6586147 227.26931207 -112.32086429 218.71301462 -107.796875 210.23828125 C-103.8973456 202.89265611 -100.20359685 195.44555165 -96.5 188 C-92.43631186 179.83053632 -88.35977438 171.67503111 -84.0625 163.625 C-79.54652319 155.16332331 -75.27246197 146.58623346 -71 138 C-66.39035039 128.73616182 -61.74211687 119.50679124 -56.8671875 110.37890625 C-52.76898547 102.65745939 -48.89402506 94.8256649 -45 87 C-40.38993361 77.73533575 -35.74380255 68.5036246 -30.86499023 59.37670898 C-28.24058907 54.43541553 -25.71283755 49.45124782 -23.22265625 44.44140625 C-22.88221283 43.75698456 -22.54176941 43.07256287 -22.19100952 42.36740112 C-20.50297542 38.97076699 -18.82063861 35.57146439 -17.14648438 32.16796875 C-11.7311452 21.23832988 -5.89725642 10.72228439 0 0 Z " fill="#172A67" transform="translate(1219,409)"/>
</svg>
